<?xml version="1.0" standalone="no"?>
<!DOCTYPE svg PUBLIC "-//W3C//DTD SVG 1.1//EN"
        "http://www.w3.org/Graphics/SVG/1.1/DTD/svg11.dtd">

<svg width="100%" height="100%" version="1.1"
     xmlns="http://www.w3.org/2000/svg">

    <path d="M151 400 L151 234
C153 234 153 234 151 234
C151 239 153 244 156 244
C164 244 171 239 171 234
C171 222 164 214 156 214
C142 214 131 222 131 234
C131 250 142 264 156 264
C175 264 191 250 191 234
C191 211 175 194 156 194
C131 194 111 211 111 234
C111 261 131 284 156 284
C186 284 211 261 211 234
C211 200 186 174 156 174"
          style="fill:#FFFFF0;stroke:#FFFF00;stroke-width:2"/>

</svg>